Coordinates
version=1
nRows=43
nColumns=12
inDegrees=yes

Units are S.I. units (second, meters, Newtons, ...)
Angles are in degrees

endheader
time	SC_y	SC_z	SC_x	AC_y	AC_z	AC_x	GH_y	GH_z	GH_yy	EL_x	PS_y
       0.0              -47.38        0.07667          41.05          38.75         -18.23          11.47          110.3           8.03         -34.95          12.69          98.97
   0.04083              -47.38        0.08055          41.05          38.76         -18.23          11.47          110.3          8.034         -34.95          12.69          98.97
   0.08166              -47.38        0.08467          41.05          38.76         -18.23          11.47          110.2          8.038         -34.94           12.7          98.98
    0.1225              -47.38        0.08904          41.04          38.76         -18.23          11.46          110.2          8.042         -34.94           12.7          98.98
    0.1633              -47.38         0.0937          41.04          38.77         -18.23          11.46          110.2          8.046         -34.93           12.7          98.99
    0.2041              -47.38        0.09867          41.03          38.77         -18.23          11.46          110.1           8.05         -34.93           12.7          98.99
     0.245              -47.37          0.104          41.03          38.77         -18.23          11.45          110.1          8.055         -34.92          12.71           99.0
    0.2858              -47.37         0.1097          41.02          38.78         -18.23          11.45          110.1           8.06         -34.91          12.71          99.01
    0.3266              -47.37         0.1157          41.02          38.78         -18.23          11.44          110.0          8.066         -34.91          12.71          99.01
    0.3675              -47.37         0.1222          41.01          38.79         -18.22          11.44          110.0          8.072          -34.9          12.72          99.02
    0.4083              -47.37         0.1292          41.01           38.8         -18.22          11.43          109.9          8.078         -34.89          12.72          99.03
    0.4491              -47.37         0.1368           41.0           38.8         -18.22          11.42          109.8          8.085         -34.88          12.73          99.04
      0.49              -47.37         0.1449          40.99          38.81         -18.22          11.42          109.8          8.092         -34.87          12.73          99.05
    0.5308              -47.37         0.1537          40.99          38.82         -18.22          11.41          109.7            8.1         -34.86          12.74          99.06
    0.5716              -47.37         0.1632          40.98          38.82         -18.22           11.4          109.6          8.109         -34.85          12.74          99.07
    0.6124              -47.37         0.1735          40.97          38.83         -18.22          11.39          109.6          8.118         -34.84          12.75          99.08
    0.6533              -47.37         0.1846          40.96          38.84         -18.21          11.38          109.5          8.129         -34.83          12.76          99.09
    0.6941              -47.37         0.1968          40.95          38.85         -18.21          11.37          109.4           8.14         -34.81          12.76          99.11
    0.7349              -47.37         0.2101          40.94          38.86         -18.21          11.36          109.3          8.152          -34.8          12.77          99.12
    0.7758              -47.37         0.2247          40.93          38.88         -18.21          11.35          109.2          8.165         -34.78          12.78          99.14
    0.8166              -47.37         0.2407          40.91          38.89         -18.21          11.34          109.0           8.18         -34.76          12.79          99.16
    0.8574              -47.37         0.2583           40.9           38.9          -18.2          11.32          108.9          8.196         -34.74           12.8          99.18
    0.8982              -47.37         0.2778          40.88          38.92          -18.2          11.31          108.7          8.213         -34.72          12.81           99.2
    0.9391              -47.37         0.2993          40.86          38.94          -18.2          11.29          108.6          8.233          -34.7          12.82          99.22
    0.9799              -47.37         0.3233          40.84          38.96         -18.19          11.27          108.4          8.255         -34.67          12.84          99.25
     1.021              -47.37           0.35          40.82          38.98         -18.19          11.25          108.2          8.279         -34.64          12.85          99.28
     1.062              -47.37           0.38          40.79           39.0         -18.18          11.22          108.0          8.306          -34.6          12.87          99.32
     1.102              -47.37         0.4137          40.76          39.03         -18.18          11.19          107.7          8.337         -34.57          12.89          99.36
     1.143              -47.36         0.4517          40.73          39.06         -18.17          11.16          107.4          8.372         -34.52          12.92           99.4
     1.184              -47.36          0.495          40.69           39.1         -18.17          11.13          107.1          8.411         -34.47          12.94          99.45
     1.225              -47.36         0.5443          40.65          39.14         -18.16          11.09          106.7          8.456         -34.42          12.97          99.51
     1.266              -47.36         0.6009           40.6          39.19         -18.15          11.04          106.2          8.507         -34.35           13.0          99.57
     1.307              -47.36         0.6663          40.55          39.24         -18.14          10.99          105.7          8.567         -34.28          13.04          99.65
     1.347              -47.35         0.7422          40.48           39.3         -18.13          10.92          105.1          8.636         -34.19          13.09          99.74
     1.388              -47.35         0.8311           40.4          39.38         -18.11          10.85          104.4          8.717         -34.09          13.14          99.84
     1.429              -47.35         0.9359          40.31          39.47          -18.1          10.76          103.6          8.812         -33.97          13.21          99.96
      1.47              -47.34           1.06          40.21          39.57         -18.08          10.66          102.7          8.925         -33.82          13.28          100.1
     1.511              -47.34           1.21          40.08          39.69         -18.05          10.54          101.5          9.061         -33.65          13.37          100.3
     1.552              -47.33           1.39          39.92          39.84         -18.02          10.39          100.1          9.225         -33.44          13.48          100.5
     1.592              -47.33          1.611          39.74          40.03         -17.99           10.2          98.38          9.426         -33.19          13.61          100.7
     1.633              -47.32          1.883           39.5          40.25         -17.95          9.978          96.26          9.674         -32.88          13.77          101.1
     1.674              -47.31          2.222          39.21          40.53         -17.89          9.697          93.62          9.982         -32.49          13.98          101.4
     1.715              -47.29           2.65          38.84          40.89         -17.82          9.343          90.29          10.37          -32.0          14.23          101.9
